<svg width="215" height="36" viewBox="0 0 215 36" fill="none" xmlns="http://www.w3.org/2000/svg">
<path d="M28.0906 23.6328C27.825 27.3047 26.4656 30.1953 24.0125 32.3047C21.575 34.4141 18.3562 35.4688 14.3562 35.4688C9.98125 35.4688 6.53593 34 4.02031 31.0625C1.52031 28.1094 0.270309 24.0625 0.270309 18.9219V16.8359C0.270309 13.5547 0.848434 10.6641 2.00468 8.16406C3.16093 5.66406 4.80937 3.75 6.95 2.42188C9.10625 1.07813 11.6062 0.40625 14.45 0.40625C18.3875 0.40625 21.5594 1.46094 23.9656 3.57031C26.3719 5.67969 27.7625 8.64062 28.1375 12.4531H21.1062C20.9344 10.25 20.3172 8.65625 19.2547 7.67188C18.2078 6.67188 16.6062 6.17188 14.45 6.17188C12.1062 6.17188 10.3484 7.01562 9.17656 8.70312C8.02031 10.375 7.42656 12.9766 7.39531 16.5078V19.0859C7.39531 22.7734 7.95 25.4688 9.05937 27.1719C10.1844 28.875 11.95 29.7266 14.3562 29.7266C16.5281 29.7266 18.1453 29.2344 19.2078 28.25C20.2859 27.25 20.9031 25.7109 21.0594 23.6328H28.0906Z" fill="#E74C3C"/>
<path d="M67.4591 18.7109C67.4591 22.0703 66.8653 25.0156 65.6778 27.5469C64.4903 30.0781 62.7872 32.0312 60.5684 33.4062C58.3653 34.7812 55.8341 35.4688 52.9747 35.4688C50.1466 35.4688 47.6231 34.7891 45.4044 33.4297C43.1856 32.0703 41.4669 30.1328 40.2481 27.6172C39.0294 25.0859 38.4122 22.1797 38.3966 18.8984V17.2109C38.3966 13.8516 38.9981 10.8984 40.2012 8.35156C41.42 5.78906 43.1309 3.82812 45.3341 2.46875C47.5528 1.09375 50.0841 0.40625 52.9278 0.40625C55.7716 0.40625 58.295 1.09375 60.4981 2.46875C62.7169 3.82812 64.4278 5.78906 65.6309 8.35156C66.8497 10.8984 67.4591 13.8438 67.4591 17.1875V18.7109ZM60.3341 17.1641C60.3341 13.5859 59.6934 10.8672 58.4122 9.00781C57.1309 7.14844 55.3028 6.21875 52.9278 6.21875C50.5684 6.21875 48.7481 7.14062 47.4669 8.98438C46.1856 10.8125 45.5372 13.5 45.5216 17.0469V18.7109C45.5216 22.1953 46.1622 24.8984 47.4434 26.8203C48.7247 28.7422 50.5684 29.7031 52.9747 29.7031C55.3341 29.7031 57.1466 28.7812 58.4122 26.9375C59.6778 25.0781 60.3184 22.375 60.3341 18.8281V17.1641Z" fill="#2980B9"/>
<path d="M86.3197 29.3516H101.249V35H79.2884V0.875H86.3197V29.3516Z" fill="#27AE60"/>
<path d="M140.055 18.7109C140.055 22.0703 139.462 25.0156 138.274 27.5469C137.087 30.0781 135.383 32.0312 133.165 33.4062C130.962 34.7812 128.43 35.4688 125.571 35.4688C122.743 35.4688 120.219 34.7891 118.001 33.4297C115.782 32.0703 114.063 30.1328 112.844 27.6172C111.626 25.0859 111.008 22.1797 110.993 18.8984V17.2109C110.993 13.8516 111.594 10.8984 112.797 8.35156C114.016 5.78906 115.727 3.82812 117.93 2.46875C120.149 1.09375 122.68 0.40625 125.524 0.40625C128.368 0.40625 130.891 1.09375 133.094 2.46875C135.313 3.82812 137.024 5.78906 138.227 8.35156C139.446 10.8984 140.055 13.8438 140.055 17.1875V18.7109ZM132.93 17.1641C132.93 13.5859 132.29 10.8672 131.008 9.00781C129.727 7.14844 127.899 6.21875 125.524 6.21875C123.165 6.21875 121.344 7.14062 120.063 8.98438C118.782 10.8125 118.133 13.5 118.118 17.0469V18.7109C118.118 22.1953 118.758 24.8984 120.04 26.8203C121.321 28.7422 123.165 29.7031 125.571 29.7031C127.93 29.7031 129.743 28.7812 131.008 26.9375C132.274 25.0781 132.915 22.375 132.93 18.8281V17.1641Z" fill="#1ABC9C"/>
<path d="M164.518 22.5078H158.916V35H151.885V0.875H164.564C168.596 0.875 171.705 1.77344 173.893 3.57031C176.08 5.36719 177.174 7.90625 177.174 11.1875C177.174 13.5156 176.666 15.4609 175.65 17.0234C174.65 18.5703 173.127 19.8047 171.08 20.7266L178.463 34.6719V35H170.916L164.518 22.5078ZM158.916 16.8125H164.588C166.353 16.8125 167.721 16.3672 168.689 15.4766C169.658 14.5703 170.143 13.3281 170.143 11.75C170.143 10.1406 169.682 8.875 168.76 7.95312C167.853 7.03125 166.455 6.57031 164.564 6.57031H158.916V16.8125Z" fill="#F53B57"/>
<path d="M206.956 26.0469C206.956 24.7188 206.488 23.7031 205.55 23C204.613 22.2812 202.925 21.5312 200.488 20.75C198.05 19.9531 196.12 19.1719 194.698 18.4062C190.823 16.3125 188.886 13.4922 188.886 9.94531C188.886 8.10156 189.402 6.46094 190.433 5.02344C191.48 3.57031 192.972 2.4375 194.909 1.625C196.863 0.8125 199.05 0.40625 201.472 0.40625C203.909 0.40625 206.081 0.851562 207.988 1.74219C209.894 2.61719 211.37 3.85937 212.417 5.46875C213.48 7.07812 214.011 8.90625 214.011 10.9531H206.98C206.98 9.39062 206.488 8.17969 205.503 7.32031C204.519 6.44531 203.136 6.00781 201.355 6.00781C199.636 6.00781 198.3 6.375 197.347 7.10938C196.394 7.82812 195.917 8.78125 195.917 9.96875C195.917 11.0781 196.472 12.0078 197.581 12.7578C198.706 13.5078 200.355 14.2109 202.527 14.8672C206.527 16.0703 209.441 17.5625 211.269 19.3438C213.097 21.125 214.011 23.3438 214.011 26C214.011 28.9531 212.894 31.2734 210.659 32.9609C208.425 34.6328 205.417 35.4688 201.636 35.4688C199.011 35.4688 196.62 34.9922 194.464 34.0391C192.308 33.0703 190.659 31.75 189.519 30.0781C188.394 28.4062 187.831 26.4688 187.831 24.2656H194.886C194.886 28.0312 197.136 29.9141 201.636 29.9141C203.308 29.9141 204.613 29.5781 205.55 28.9062C206.488 28.2188 206.956 27.2656 206.956 26.0469Z" fill="#5F27CD"/>
</svg>
